<!-- <?xml version="1.0" encoding="iso-8859-1" standalone="no"?>
<!DOCTYPE svg PUBLIC "-//W3C//DTD SVG 1.0//EN" "http://www.w3.org/TR/SVG/DTD/svg10.dtd">
<?xml-stylesheet type="text/css" href="../css/svg.css" ?> -->
<svg xmlns="http://www.w3.org/2000/svg" version="1.1" x="0" y="0" width="50px" height="50px" viewBox="0 0 50 50" enable-background="new 0 0 50 50" xml:space="preserve"><path fill="white" d="M25 2.5c6 0 11.6 2.3 15.9 6.6 4.2 4.2 6.6 9.9 6.6 15.9s-2.3 11.6-6.6 15.9c-4.2 4.2-9.9 6.6-15.9 6.6 -6 0-11.6-2.3-15.9-6.6C4.9 36.6 2.6 31 2.6 25S4.9 13.4 9.1 9.1C13.4 4.9 19 2.5 25 2.5M25 0C11.2 0 0 11.2 0 25c0 13.8 11.2 25 25 25s25-11.2 25-25C50 11.2 38.8 0 25 0L25 0z"/><path fill="white" d="M14.6 28.8c-1-1-1.5-2.3-1.5-3.8 0-1.5 0.5-2.7 1.5-3.7 1-1 2.3-1.5 3.7-1.5 1.5 0 2.8 0.5 3.9 1.4l-1.4 1.5c-0.7-0.6-1.5-0.8-2.5-0.8 -0.9 0-1.7 0.3-2.3 0.9 -0.6 0.6-0.9 1.3-0.9 2.2 0 1 0.3 1.8 0.9 2.3 0.6 0.6 1.3 0.9 2.3 0.9 0.9 0 1.8-0.3 2.4-0.8l1.4 1.5c-1.1 0.9-2.4 1.4-3.9 1.4C16.8 30.3 15.6 29.8 14.6 28.8zM29.9 22.6l-2.1 7.7h-2.1l-2.8-10.5h2.2l1.8 7.2 1.9-7.2h2.2l1.8 7.2 1.8-7.2h2.2l-2.8 10.5h-2.1L29.9 22.6z"/></svg>