<svg xmlns="http://www.w3.org/2000/svg" width="411" height="200"><style type="text/css"><![CDATA[
	.st0{fill:#858585;}
	.st1{fill:#FFFFFF;}
	.st2{fill:#9A8B60;}
]]></style><path class="st1" d="M6.045 106.214c-2.548-2.539-3.821-5.717-3.821-9.535.011-3.739 1.289-6.883 3.831-9.431 2.542-2.55 5.695-3.822 9.457-3.822 3.796 0 7.058 1.18 9.777 3.547l-3.55 3.884c-1.809-1.419-3.886-2.128-6.228-2.128-2.39.012-4.312.759-5.773 2.238-1.461 1.477-2.193 3.367-2.193 5.675.014 2.471.751 4.436 2.218 5.889 1.47 1.457 3.396 2.185 5.788 2.185 2.386 0 4.449-.706 6.188-2.111l3.55 3.884c-2.708 2.366-5.967 3.548-9.777 3.548-3.762-.014-6.916-1.287-9.467-3.823z"/><path class="st1" d="M37.909 106.214c-2.544-2.551-3.814-5.71-3.814-9.483 0-3.784 1.271-6.949 3.814-9.49 2.542-2.544 5.706-3.814 9.489-3.814 3.787 0 6.951 1.271 9.495 3.814 2.541 2.541 3.812 5.706 3.812 9.49 0 3.783-1.271 6.948-3.812 9.49-2.544 2.544-5.708 3.814-9.495 3.814-3.783 0-6.947-1.273-9.489-3.821zm9.508-1.146c2.353 0 4.27-.799 5.751-2.397 1.477-1.594 2.215-3.574 2.215-5.94 0-2.367-.738-4.348-2.215-5.943-1.481-1.597-3.408-2.397-5.786-2.397-2.354 0-4.27.801-5.748 2.397-1.479 1.596-2.216 3.576-2.216 5.943 0 2.366.737 4.347 2.216 5.94 1.479 1.599 3.405 2.397 5.783 2.397z"/><path class="st1" d="M70.362 110.035v-26.609h1.775l11.533 13.129 11.549-13.129h1.773v26.609h-5.321l-.02-15.433-7.981 8.87-7.986-8.87v15.433h-5.322z"/><path class="st1" d="M108.616 110.035v-26.609h1.776l11.531 13.129 11.55-13.129h1.775v26.609h-5.323l-.02-15.433-7.982 8.87-7.983-8.87v15.433h-5.324z"/><path class="st1" d="M149.573 106.214c-2.545-2.551-3.814-5.71-3.814-9.483 0-3.784 1.27-6.949 3.814-9.49 2.542-2.544 5.706-3.814 9.491-3.814 3.784 0 6.949 1.271 9.494 3.814 2.54 2.541 3.812 5.706 3.812 9.49 0 3.783-1.272 6.948-3.812 9.49-2.545 2.544-5.71 3.814-9.494 3.814-3.785 0-6.949-1.273-9.491-3.821zm9.509-1.146c2.353 0 4.271-.799 5.748-2.397 1.479-1.594 2.219-3.574 2.219-5.94 0-2.367-.739-4.348-2.219-5.943-1.478-1.597-3.406-2.397-5.784-2.397-2.355 0-4.269.801-5.747 2.397-1.48 1.596-2.219 3.576-2.219 5.943 0 2.366.738 4.347 2.219 5.94 1.478 1.599 3.405 2.397 5.783 2.397z"/><path class="st1" d="M183.139 110.035v-26.609h1.772l16.681 16.675v-16.675h5.321v26.609h-1.949l-16.503-16.496v16.496h-5.322z"/><path class="st1" d="M234.575 90.521l-5.32 19.515h-5.324l-7.111-26.609h5.676l4.628 18.094 4.79-18.094h5.501l4.611 18.094 4.615-18.094h5.676l-7.096 26.609h-5.322l-5.324-19.515z"/><path class="st1" d="M262.691 110.035v-26.596l19.553-.014v4.964h-14.229v5.679h10.666v4.949h-10.666v6.051h14.195v4.967h-19.519z"/><path class="st1" d="M291.58 110.035l10.648-26.609h5.322l10.627 26.596-5.66.014-1.598-4.08h-12.062l-1.598 4.08h-5.679zm13.449-19.514l-4.041 10.113h7.979l-3.938-10.113z"/><path class="st1" d="M333.258 83.426v21.643h14.193v4.967h-19.521v-26.61h5.328z"/><path class="st1" d="M375.734 83.426v4.964h-8.871v21.646h-5.33v-21.646h-8.869v-4.964h23.07z"/><path class="st1" d="M385.727 110.035v-26.609h5.324v10.643h12.402v-10.664h5.322v26.616l-5.322.014v-10.998h-12.402v10.998h-5.324z"/><path class="st1" d="M78.786 124.68c.772.336 1.494.838 2.166 1.51l-2.014 2.018c-.671-.809-1.611-1.213-2.819-1.213-1.211 0-1.983.287-2.318.861-.337.57-.337 1.059 0 1.461.335.4 1.107.703 2.318.904 1.273.135 2.434.557 3.476 1.256 1.039.701 1.561 1.828 1.561 3.373 0 1.213-.556 2.254-1.668 3.125-1.112.877-2.405 1.309-3.882 1.309-1.405 0-2.577-.203-3.514-.604-.943-.398-1.749-.941-2.421-1.609l2.014-2.016c.674.805 1.814 1.275 3.427 1.414 1.343 0 2.179-.287 2.513-.863.332-.566.332-1.141 0-1.711-.334-.574-1.17-.922-2.513-1.055-1.209-.133-2.316-.506-3.324-1.107-1.01-.609-1.514-1.648-1.514-3.123 0-1.342.575-2.408 1.72-3.217 1.146-.812 2.322-1.219 3.53-1.219 1.403 0 2.49.166 3.262.506z"/><polygon class="st1" points="99.396,139.283 103.323,139.283 96.174,131.23 97.736,129.365 102.085,124.174 98.69,124.174 93.654,130.221 93.654,124.174 90.63,124.174 90.63,139.283 93.654,139.283 93.654,134.234 94.289,133.479"/><path class="st1" d="M111.284 139.283l6.046-15.109h3.021l6.036 15.102-3.214.008-.908-2.312h-6.851l-.905 2.312h-3.225zm7.638-11.076l-2.298 5.736h4.533l-2.235-5.736z"/><path class="st1" d="M147.111 124.174v2.82h-5.036v12.289h-3.022v-12.289h-5.036v-2.82h13.094z"/><path class="st1" d="M157.344 139.283v-15.098l11.102-.012v2.82h-8.083v3.227h6.055v2.809h-6.055v3.439h8.062v2.814h-11.081z"/><path class="st1" d="M190.788 131.318c1.324.891 2.025 2.039 2.106 3.455-.138 2.848-1.654 4.357-4.563 4.523l-8.5-.014v-15.098h8.016c2.546.146 3.89 1.631 4.03 4.441-.048 1.346-.41 2.242-1.089 2.693zm-7.926-1.08h4.231c1.214-.018 1.838-.646 1.872-1.881-.034-.736-.648-1.131-1.844-1.17h-4.26v3.051zm0 6.692h4.937c1.414-.021 2.142-.748 2.175-2.189-.033-.967-.751-1.469-2.145-1.508h-4.967v3.697z"/><path class="st1" d="M204.042 137.111c-1.445-1.443-2.165-3.236-2.165-5.379 0-2.152.72-3.945 2.165-5.395 1.444-1.441 3.241-2.164 5.386-2.164 2.148 0 3.947.723 5.39 2.164 1.443 1.449 2.164 3.242 2.164 5.395 0 2.146-.721 3.943-2.164 5.387-1.442 1.439-3.241 2.164-5.39 2.164-2.145 0-3.942-.724-5.386-2.172zm5.397-.642c1.334 0 2.423-.459 3.265-1.365.839-.906 1.262-2.033 1.262-3.371 0-1.344-.423-2.469-1.262-3.375-.842-.912-1.933-1.363-3.284-1.363-1.334 0-2.424.451-3.264 1.363-.84.906-1.261 2.031-1.261 3.375 0 1.338.421 2.465 1.261 3.371s1.933 1.365 3.283 1.365z"/><path class="st1" d="M224.743 139.283l6.048-15.109h3.023l6.034 15.102-3.215.008-.901-2.312h-6.854l-.909 2.312h-3.226zm7.638-11.076l-2.297 5.736h4.534l-2.237-5.736z"/><path class="st1" d="M258.748 132.695l3.775 6.588h-3.473l-3.607-6.246h-2.766v6.246h-3.023v-15.109h6.59c3.527 0 5.287 1.451 5.287 4.354 0 2.181-.926 3.572-2.783 4.167zm-6.07-2.474h4.23c1.221-.02 1.84-.578 1.877-1.664-.037-.996-.646-1.51-1.846-1.551h-4.262v3.215z"/><path class="st1" d="M272.598 139.283v-15.121h5.822c4.701 0 7.053 2.525 7.053 7.57 0 5.035-2.352 7.551-7.053 7.551h-5.822zm5.822-3.01c2.682-.008 4.025-1.521 4.025-4.541 0-3.027-1.344-4.533-4.025-4.533h-2.799v9.074h2.799z"/><path class="st1" d="M296.129 124.162h3.008v15.121h-3.008v-15.121z"/><path class="st1" d="M310.459 139.283v-15.109h1.004l9.467 9.471v-9.471h3.021v15.109h-1.105l-9.367-9.363v9.363h-3.02z"/><path class="st1" d="M336.521 137.111c-1.441-1.436-2.17-3.242-2.17-5.41.008-2.127.734-3.906 2.176-5.355 1.445-1.449 3.232-2.172 5.371-2.172 2.156 0 4.006.672 5.553 2.016l-2.02 2.205c-1.023-.803-2.205-1.207-3.533-1.207-1.357.01-2.451.434-3.283 1.266-.826.842-1.242 1.92-1.242 3.23.008 1.402.43 2.514 1.262 3.342.834.828 1.93 1.236 3.285 1.236 1.084 0 1.922-.215 2.508-.643v-2.59l-2.02.008v-2.816h5.043v7.049c-1.543 1.346-3.385 2.014-5.553 2.014-2.138-.005-3.931-.729-5.377-2.173z"/><path class="st2" d="M75.771 55.753l-.002-.006 1.891-.602 3.021 9.49-1.89.602-2.214-6.955-.862 1.667-1.667-.862 1.723-3.334z"/><path class="st2" d="M84.702 53.114l-.003-.013 1.912-.528 1.542 5.577 1.292-.357.528 1.912-1.292.357.583 2.11-1.912.529-.583-2.11-4.355 1.204-.528-1.912.064-.018-.076-.048 2.828-6.703zm1.538 5.564l-.845-3.057-1.489 3.702 2.334-.645z"/><path class="st2" d="M93.61 50.824c.947-.225 1.779-.171 2.497.16.718.332 1.188.969 1.413 1.912.266 1.119.08 2.245-.558 3.379-.638 1.133-1.202 1.913-1.691 2.339l3.486-.829.46 1.937-6.526 1.551-.46-1.937c.431-.103 1.12-.834 2.07-2.197.949-1.362 1.467-2.292 1.553-2.791s-.032-.947-.354-1.348c-.323-.4-.893-.504-1.71-.31-.774.184-1.316.586-1.624 1.205l-1.598-.984c.328-.533.671-.955 1.029-1.268.356-.311 1.028-.584 2.013-.819z"/><path class="st2" d="M105.956 48.125l.375 1.82-4.029.83.281 1.365.78-.161c1.295-.267 2.339-.177 3.131.269.81.533 1.327 1.341 1.55 2.424.169.823-.009 1.605-.536 2.346-.527.741-1.267 1.209-2.22 1.406-.906.187-1.688.212-2.349.077-.66-.135-1.251-.375-1.774-.718l1.032-1.567c.54.43 1.292.569 2.253.416 1.17-.241 1.72-.802 1.652-1.682-.139-.545-.421-.907-.847-1.085-.243-.171-.966-.149-2.167.067l-2.08.429-1.031-5.004 5.979-1.232z"/><path class="st2" d="M120.618 45.863c.538.136 1.061.387 1.568.752l-1.096 1.523c-.522-.453-1.176-.615-1.962-.487s-1.258.396-1.416.802-.106.723.155.949c.261.227.795.341 1.603.344.844-.047 1.641.103 2.393.451.751.348 1.209 1.024 1.373 2.028.128.786-.123 1.521-.753 2.207-.63.686-1.425 1.106-2.386 1.263-.913.148-1.696.142-2.35-.021s-1.235-.426-1.743-.792l1.096-1.523c.522.453 1.314.637 2.376.554.874-.142 1.388-.417 1.543-.823.155-.406.095-.777-.182-1.113-.276-.336-.858-.476-1.746-.421-.8.041-1.56-.082-2.278-.368-.719-.286-1.157-.909-1.313-1.87-.142-.869.117-1.627.775-2.274.659-.647 1.381-1.035 2.167-1.164.913-.147 1.639-.153 2.176-.017z"/><path class="st2" d="M126.292 54.713l-1.371-9.851 7.241-1.014.256 1.84-5.271.733.292 2.103 3.95-.549.255 1.833-3.949.549.312 2.241 5.257-.731.256 1.84-7.228 1.006z"/><path class="st2" d="M144.181 42.436c.968-.102 1.787.057 2.456.478s1.055 1.113 1.157 2.076c.121 1.144-.208 2.237-.984 3.28-.777 1.043-1.436 1.744-1.977 2.104l3.563-.376.209 1.98-6.671.704-.209-1.979c.44-.046 1.218-.685 2.333-1.914 1.115-1.23 1.748-2.086 1.897-2.569.149-.482.089-.943-.179-1.382-.269-.439-.821-.614-1.657-.526-.792.084-1.38.413-1.764.987l-1.459-1.18c.394-.486.788-.861 1.182-1.125s1.096-.452 2.103-.558z"/><path class="st2" d="M151.945 50.22c-.744-.892-1.177-2.041-1.299-3.447-.123-1.41.105-2.617.684-3.623.579-1.005 1.419-1.555 2.521-1.651 1.106-.096 2.03.301 2.771 1.191.741.891 1.173 2.041 1.295 3.451s-.104 2.618-.681 3.623-1.418 1.555-2.524 1.651c-1.101.096-2.024-.303-2.767-1.195zm2.613-.657c.437-.038.794-.369 1.073-.992.279-.624.38-1.376.303-2.258s-.306-1.605-.688-2.171c-.382-.566-.796-.83-1.241-.791-.436.038-.794.369-1.073.992s-.38 1.376-.303 2.257c.077.882.306 1.605.688 2.171.383.567.796.831 1.241.792z"/><path class="st2" d="M164.832 40.269l.077 1.08-1.929.139.338 4.707-1.158.083-.337-4.707-1.929.138-.078-1.081 5.016-.359z"/><path class="st2" d="M166.717 45.959l-.348-5.792 1.159-.07.139 2.317 2.699-.162-.139-2.321 1.158-.069.348 5.792-1.158.073-.144-2.394-2.699.162.144 2.394-1.159.07z"/><path class="st2" d="M176.608 45.402l2.073-5.896 1.16-.049 2.561 5.695-1.233.056-.385-.874-2.628.111-.31.904-1.238.053zm2.749-4.376l-.788 2.24 1.739-.074-.951-2.166z"/><path class="st2" d="M184.019 39.296l1.781 4.197 1.544-4.302 1.237-.039-2.132 5.873-1.16.037-2.507-5.726 1.237-.04z"/><path class="st2" d="M190.275 44.913l-.122-5.797 4.262-.093.023 1.083-3.102.065.026 1.238 2.325-.049.022 1.079-2.324.049.027 1.319 3.094-.065.022 1.083-4.253.088z"/><path class="st2" d="M206.567 50.599v-13.214l1.083.005v13.214l-1.083-.005z"/><path class="st2" d="M220.001 49.415l.298-9.948 4.337.13c2.321.07 3.454 1.06 3.396 2.97-.059 1.98-1.248 2.937-3.564 2.867l-2.354-.07-.124 4.112-1.989-.061zm2.169-5.91l2.785.083c.801.011 1.223-.342 1.267-1.058-.002-.655-.397-1.007-1.183-1.058l-2.805-.084-.064 2.117z"/><path class="st2" d="M231.19 48.352c-.903-.998-1.321-2.202-1.252-3.611.069-1.414.602-2.573 1.598-3.477s2.201-1.321 3.615-1.252 2.573.602 3.478 1.598c.902.996 1.32 2.201 1.252 3.615-.068 1.414-.602 2.573-1.598 3.477s-2.202 1.321-3.616 1.252c-1.414-.07-2.573-.603-3.477-1.602zm3.574-.254c.879.042 1.609-.221 2.191-.791.582-.569.894-1.296.937-2.18s-.197-1.637-.721-2.26c-.524-.624-1.229-.957-2.117-1-.879-.043-1.61.221-2.191.79-.582.57-.894 1.296-.937 2.18-.043.883.197 1.637.72 2.26.524.624 1.229.957 2.118 1.001z"/><path class="st2" d="M248.368 46.426l2.18 4.499-2.277-.156-2.096-4.267-1.813-.124-.281 4.104-1.985-.136.679-9.929 4.33.296c2.316.159 3.41 1.191 3.279 3.098-.099 1.434-.771 2.306-2.016 2.615zm-3.88-1.902l2.78.19c.8.041 1.234-.295 1.306-1.008.022-.654-.358-1.022-1.142-1.102l-2.8-.192-.144 2.112z"/><path class="st2" d="M261.354 41.869l-.162 1.851-3.305-.29-.707 8.064-1.983-.174.707-8.064-3.305-.29.162-1.851 8.593.754z"/><path class="st2" d="M265.722 42.317l-.864 8.049 5.277.566-.198 1.847-7.257-.779 1.062-9.896 1.98.213z"/><path class="st2" d="M271.938 52.999l5.234-9.354 1.975.257 2.655 10.376-2.1-.267-.396-1.59-4.474-.583-.79 1.436-2.104-.275zm5.932-6.587l-1.989 3.555 2.961.386-.972-3.941z"/><path class="st2" d="M283.927 54.59l1.549-9.831.655.103 5.19 7.132.971-6.161 1.967.31-1.55 9.831-.721-.114-5.135-7.056-.961 6.096-1.965-.31z"/><path class="st2" d="M295.72 56.488l1.851-9.786 3.769.713c3.042.575 4.255 2.495 3.638 5.759-.616 3.26-2.446 4.602-5.488 4.026l-3.77-.712zm4.136-1.237c1.735.324 2.79-.492 3.164-2.447.366-1.957-.318-3.099-2.053-3.427l-1.812-.343-1.111 5.874 1.812.343z"/><path class="st2" d="M307.307 58.757l-.071-.015c-.303-.064-.522-.201-.658-.411-.137-.21-.178-.444-.122-.704.055-.26.188-.459.397-.597.21-.139.463-.177.757-.114.312.066.535.205.671.417.137.212.177.448.122.708l-.01.045c-.223 1.047-.812 1.697-1.771 1.951l-.201-.653c.379-.061.675-.269.886-.627z"/><path class="st2" d="M317.909 59.695c-.677-1.164-.835-2.429-.476-3.793.361-1.369 1.122-2.392 2.284-3.069s2.428-.835 3.797-.475c1.368.36 2.392 1.122 3.068 2.284.678 1.162.836 2.427.475 3.796-.36 1.369-1.122 2.392-2.283 3.069-1.162.678-2.428.836-3.797.475-1.368-.361-2.391-1.123-3.068-2.287zm3.549.492c.851.225 1.62.118 2.307-.318s1.144-1.083 1.368-1.938c.226-.855.147-1.642-.235-2.361-.383-.718-1.003-1.19-1.863-1.417-.852-.225-1.62-.119-2.307.318-.688.437-1.144 1.083-1.369 1.938-.225.855-.146 1.642.236 2.36.382.719 1.003 1.191 1.863 1.418z"/><path class="st2" d="M335.152 61.617l1.052 4.887-2.175-.69-1.026-4.642-1.732-.55-1.245 3.921-1.896-.602 3.011-9.486 4.136 1.313c2.214.703 3.031 1.965 2.453 3.786-.436 1.369-1.295 2.057-2.578 2.063zm-3.319-2.766l2.655.843c.768.23 1.27.006 1.508-.67.177-.63-.105-1.078-.848-1.341l-2.676-.849-.639 2.017z"/><path class="st0" d="M179.882 164.552v-7.07l5.198-.005v1.32h-3.783v1.51h2.834v1.316h-2.834v1.608h3.773v1.32h-5.188z"/><path class="st0" d="M191.005 157.712c.362.158.7.394 1.014.708l-.943.943c-.314-.377-.755-.566-1.321-.566s-.928.134-1.085.401-.157.495 0 .684.519.33 1.085.425c.598.062 1.14.26 1.627.59s.731.856.731 1.58c0 .565-.26 1.054-.78 1.462-.521.409-1.127.613-1.818.613-.658 0-1.206-.095-1.646-.283-.44-.188-.817-.44-1.132-.755l.943-.943c.314.378.849.598 1.604.661.629 0 1.021-.134 1.177-.401.156-.268.156-.534 0-.802-.155-.268-.548-.433-1.177-.495-.566-.063-1.085-.236-1.557-.52-.472-.282-.708-.77-.708-1.462 0-.626.268-1.128.804-1.507s1.087-.568 1.653-.568c.658 0 1.168.078 1.529.235z"/><path class="st0" d="M199.823 157.477v1.32h-2.358v5.755h-1.415v-5.755h-2.358v-1.32h6.131z"/><path class="st0" d="M200.808 163.417c.126-.127.296-.19.51-.19.226 0 .402.063.528.19.125.128.188.286.188.475s-.063.346-.188.472c-.126.126-.299.188-.519.188s-.393-.062-.519-.188c-.125-.126-.188-.283-.188-.472s.062-.347.188-.475z"/><path class="st0" d="M210.506 157.477c.692 0 1.259.174 1.701.521s.663.865.663 1.554c0 .817-.313 1.566-.941 2.245-.627.68-1.146 1.126-1.554 1.34h2.547v1.415h-4.769v-1.415c.314 0 .912-.393 1.792-1.18.88-.785 1.392-1.344 1.533-1.674.142-.33.134-.66-.023-.99-.157-.331-.535-.496-1.132-.496-.566 0-1.006.189-1.321.566l-.943-.943c.314-.314.621-.55.92-.708.298-.157.808-.235 1.527-.235z"/><path class="st0" d="M215.544 163.535c-.472-.678-.708-1.518-.708-2.521 0-1.006.236-1.847.708-2.523.472-.676 1.101-1.014 1.887-1.014.789 0 1.419.338 1.889 1.014.47.677.705 1.518.705 2.523 0 1.007-.235 1.848-.705 2.524-.47.676-1.1 1.014-1.889 1.014-.786 0-1.415-.339-1.887-1.017zm1.891-.304c.312 0 .585-.213.821-.637.236-.425.354-.951.354-1.581 0-.628-.118-1.155-.354-1.58-.236-.424-.513-.637-.83-.637-.311 0-.585.213-.821.637-.236.425-.354.952-.354 1.58 0 .63.118 1.156.354 1.581.236.425.513.637.83.637z"/><path class="st0" d="M223.542 157.477v-.005h1.41v7.08h-1.41v-5.188l-.943.943-.943-.943 1.886-1.887z"/><path class="st0" d="M228.597 157.477v-.005h1.41v7.08h-1.41v-5.188l-.943.943-.943-.943 1.886-1.887z"/></svg>