<svg xmlns="http://www.w3.org/2000/svg" width="100%" height="100%"><style type="text/css"><![CDATA[
	.pin{fill:url(#gold);}
	.shadow{ opacity:0.6; fill:#131313; }
	.st2{fill:#FFFFFF;}
]]></style><ellipse class="shadow" cx="30" cy="59.084" rx="5.084" ry=".916"/><linearGradient id="gold" gradientUnits="userSpaceOnUse" x1="19.13" y1="1.055" x2="44.592" y2="55.867"><stop offset=".256" stop-color="#9A8B60"/><stop offset="1" stop-color="#3B3524"/></linearGradient><path class="pin" d="M48.409 40.566c-2.557 2.564-5.27 4.352-7.762 6.139-2.5 1.754-4.77 3.502-6.486 5.26-1.732 1.742-2.91 3.49-3.508 4.816-.623 1.322-.662 2.229-.65 2.186.01.043-.031-.863-.652-2.186-.596-1.326-1.775-3.078-3.508-4.816-1.717-1.758-3.988-3.506-6.484-5.26-2.494-1.787-5.207-3.574-7.762-6.139-2.523-2.549-4.646-5.633-5.801-9.488-1.156-3.814-1.34-8.4-.02-12.992 1.297-4.574 4.09-9.152 8.342-12.537 4.213-3.39 9.877-5.593 15.884-5.549 6.004-.045 11.676 2.158 15.881 5.549 4.258 3.385 7.053 7.963 8.342 12.541 1.316 4.59 1.137 9.174-.016 12.992-1.151 3.852-3.276 6.936-5.8 9.484z"/><path class="st2" d="M23.102 27.47c-.661-.661-.993-1.49-.993-2.484.001-.962.333-1.778.998-2.44.659-.663 1.479-.996 2.457-.996.986 0 1.833.309 2.539.923l-.921 1.011c-.47-.368-1.012-.556-1.618-.556-.622.005-1.122.199-1.503.583-.379.384-.568.878-.568 1.467.003.641.196 1.155.578 1.534.38.379.879.568 1.5.568.622 0 1.16-.183 1.611-.552l.921 1.015c-.704.616-1.55.922-2.539.922-.979 0-1.799-.332-2.462-.995"/><polygon class="st2" points="33.49,23.396 32.108,28.468 30.724,28.468 28.875,21.55 30.352,21.55 31.556,26.245 32.801,21.55 34.228,21.55 35.431,26.245 36.626,21.55 38.104,21.55 36.263,28.468 34.876,28.468"/><path class="st2" d="M29.999 39.895c-4.181 0-8.113-1.631-11.069-4.58-2.957-2.959-4.586-6.9-4.586-11.089 0-4.18 1.629-8.113 4.586-11.069 2.956-2.956 6.888-4.584 11.069-4.584 4.184 0 8.118 1.629 11.071 4.584 2.957 2.956 4.586 6.889 4.586 11.069 0 4.189-1.629 8.13-4.586 11.089-2.954 2.949-6.887 4.58-11.071 4.58m0-29.806c-7.794 0-14.133 6.34-14.133 14.136 0 7.812 6.338 14.15 14.133 14.15 7.795 0 14.136-6.338 14.136-14.15 0-7.796-6.341-14.136-14.136-14.136"/></svg>