<svg xmlns="http://www.w3.org/2000/svg" width="100%" viewBox="-0.75 40 420 120"><style type="text/css"><![CDATA[
	.white {fill:#FFFFFF;}
]]></style><path class="white" d="M88.788 125.525v-80.228h-12.347v92.392h33.843v-12.162h-21.496v-.002zm26.272-80.351h12.347v92.391h-12.347v-92.391zm52.751 12.163v-12.163h-31.25v92.391h12.223v-42.065h16.036v-12.209h-16.036v-25.954h19.027zm37.68 0v-12.163h-30.263v92.391h33.843v-12.16h-21.497v-29.905h12.005v-12.209h-12.005v-25.954h17.917zm45.194 21.007v-14.039c0-12.662-5.846-19.099-17.381-19.131h-20.232v92.392h19.314c12.145-.033 18.301-6.453 18.301-19.084v-14.086c0-5.433-2.742-9.81-8.16-13.026 5.415-3.218 8.158-7.593 8.158-13.026zm-12.348 40.138c0 4.721-2.038 6.922-6.415 6.922h-6.508v-27.929h4.804c2.451 0 3.587.242 4.105.447 2.699 1.063 4.014 3.182 4.014 6.475v14.085zm.002-40.138c-.002 3.27-1.318 5.406-3.98 6.509-.795.274-2.188.413-4.14.413h-4.804v-27.93h6.508c4.377 0 6.416 2.214 6.416 6.969v14.039zm31.078 47.06v-80.23h-12.346v92.391h31.628v-12.16h-19.282zm40.974-81.702c-12.483 0-18.812 6.406-18.812 19.039v57.259c0 12.664 6.328 19.086 18.812 19.086h.003c12.479-.035 18.806-6.453 18.806-19.086v-57.261c-.001-12.632-6.329-19.037-18.809-19.037zm6.462 76.296c0 4.691-2.053 6.877-6.462 6.877-4.408 0-6.462-2.186-6.462-6.877v-57.259c0-4.691 2.039-6.875 6.416-6.875h.087c4.38.029 6.421 2.213 6.421 6.875v57.259zm36.347-76.296c-12.479 0-18.807 6.406-18.807 19.039v57.259c0 12.664 6.328 19.086 18.807 19.086h.003c12.479-.035 18.806-6.453 18.806-19.086v-57.261c0-12.632-6.327-19.037-18.809-19.037zm6.463 76.296c0 4.691-2.054 6.877-6.463 6.877-4.407 0-6.461-2.186-6.461-6.877v-57.259c0-4.691 2.039-6.875 6.416-6.875h.086c4.381.029 6.422 2.213 6.422 6.875v57.259zm38.46-74.824h-20.233v92.391h19.317c12.143-.031 18.3-6.451 18.3-19.082v-54.178c-.002-12.661-5.85-19.098-17.384-19.131zm5.035 73.308c0 4.721-2.039 6.922-6.414 6.922h-6.51v-68.067h6.51c4.375 0 6.414 2.213 6.414 6.968v54.177zm-109.44 34.08c.072.508.211.887.422 1.137.385.457 1.045.686 1.978.686.558 0 1.013-.061 1.362-.18.66-.232.991-.662.991-1.289 0-.367-.161-.65-.485-.85-.324-.197-.838-.369-1.541-.52l-1.203-.266c-1.182-.26-1.992-.545-2.435-.85-.748-.514-1.122-1.314-1.122-2.404 0-.994.365-1.82 1.096-2.479.732-.658 1.807-.986 3.228-.986 1.185 0 2.194.311 3.031.932.834.621 1.272 1.52 1.313 2.699h-2.23c-.041-.668-.34-1.143-.895-1.424-.373-.186-.833-.277-1.383-.277-.613 0-1.102.119-1.467.361-.366.24-.549.578-.549 1.01 0 .396.182.693.541.889.231.131.723.283 1.475.459l1.949.459c.854.201 1.492.471 1.918.805.663.521.993 1.279.993 2.268 0 1.016-.392 1.857-1.177 2.527-.783.67-1.893 1.006-3.323 1.006-1.462 0-2.61-.33-3.446-.99-.84-.66-1.259-1.568-1.259-2.723h2.218zm9.045-7.675h2.281v4.574l4.291-4.574h2.997l-4.556 4.566 4.789 6.537h-2.98l-3.422-4.848-1.119 1.135v3.713h-2.281v-11.103zm17.287 0h-2.625l-3.964 11.104h2.427l.753-2.283h4.089l.731 2.283h2.518l-3.929-11.104zm-2.778 6.908l1.439-4.369 1.404 4.369h-2.843zm16.571-6.908v1.967h-3.321v9.137h-2.335v-9.137h-3.338v-1.967h8.994zm9.951 1.967h-5.875v2.357h5.393v1.928h-5.393v2.855h6.146v1.996h-8.412v-11.104h8.143l-.002 1.968zm11.176 4.158c-.287-.447-.715-.773-1.281-.98.371-.189.654-.4.846-.633.343-.41.515-.955.515-1.633 0-.66-.17-1.225-.509-1.697-.564-.768-1.523-1.162-2.877-1.182h-5.367v11.102h5.004c.563 0 1.085-.051 1.568-.15.48-.1.9-.285 1.255-.557.314-.236.575-.527.785-.875.329-.521.495-1.111.495-1.77-.001-.637-.145-1.18-.434-1.625zm-6.459-4.196h2.415c.53 0 .97.057 1.312.172.396.166.596.508.596 1.025 0 .467-.15.793-.451.975-.301.184-.692.275-1.175.275h-2.696v-2.447zm3.819 7.049c-.269.131-.643.195-1.124.195h-2.696v-2.96h2.732c.479.006.845.068 1.111.189.471.215.705.613.705 1.189.002.684-.241 1.145-.728 1.387zm14.003-8.021c-.838-.863-2.051-1.295-3.638-1.295-1.586 0-2.798.432-3.638 1.295-1.124 1.02-1.688 2.547-1.688 4.58 0 1.992.563 3.52 1.688 4.58.84.863 2.053 1.295 3.638 1.295 1.588 0 2.8-.432 3.638-1.295 1.12-1.061 1.68-2.588 1.68-4.58 0-2.033-.56-3.561-1.68-4.58zm-1.45 7.472c-.54.678-1.268 1.018-2.188 1.018s-1.651-.34-2.198-1.018c-.549-.678-.82-1.643-.82-2.893s.273-2.215.82-2.893 1.278-1.016 2.198-1.016 1.647.338 2.188 1.02c.542.68.811 1.643.811 2.887-.001 1.253-.27 2.218-.811 2.895zm11.086-8.429h-2.624l-3.965 11.104h2.427l.753-2.283h4.089l.731 2.283h2.518l-3.929-11.104zm-2.779 6.908l1.439-4.369 1.404 4.369h-2.843zm17.175 3.281c-.041-.18-.062-.523-.062-1.031v-.746c0-.777-.107-1.355-.32-1.734-.213-.377-.576-.672-1.088-.877.613-.211 1.051-.57 1.318-1.082.266-.508.398-1.027.398-1.555 0-.434-.068-.824-.205-1.166-.138-.342-.323-.652-.557-.934-.283-.342-.631-.6-1.041-.775-.408-.176-.992-.271-1.754-.287h-5.309v11.102h2.268v-4.354h2.268c.646 0 1.086.119 1.322.354.234.236.357.709.366 1.416l.015 1.033c.006.326.039.645.098.955.031.15.082.348.151.594h2.562v-.277c-.226-.138-.368-.349-.43-.636zm-2.737-5.459c-.249.121-.621.18-1.117.18h-2.496v-2.982h2.562c.477 0 .834.066 1.072.195.424.234.637.684.637 1.357 0 .623-.219 1.039-.658 1.25zm14.781-1.287c-.139-.643-.404-1.238-.791-1.793-.481-.684-1.113-1.152-1.893-1.408-.457-.152-1.029-.23-1.718-.24h-4.787v11.102h4.787c1.678 0 2.92-.691 3.724-2.07.594-1.023.889-2.275.889-3.752 0-.585-.07-1.196-.211-1.839zm-2.501 4.111c-.433 1.08-1.196 1.619-2.293 1.619h-2.143v-7.246h2.143c1.058 0 1.763.303 2.116.908.354.605.531 1.473.531 2.602.001.819-.116 1.526-.354 2.117zm6.51.121c.071.508.212.887.421 1.137.385.457 1.045.686 1.979.686.557 0 1.013-.061 1.361-.18.66-.232.992-.662.992-1.289 0-.367-.162-.65-.486-.85-.324-.197-.839-.369-1.542-.52l-1.202-.266c-1.18-.26-1.992-.545-2.434-.85-.748-.514-1.123-1.314-1.123-2.404 0-.994.366-1.82 1.097-2.479.732-.658 1.807-.986 3.228-.986 1.184 0 2.193.311 3.029.932.838.621 1.273 1.52 1.314 2.699h-2.229c-.041-.668-.34-1.143-.896-1.424-.372-.186-.832-.277-1.383-.277-.612 0-1.102.119-1.467.361-.365.24-.548.578-.548 1.01 0 .396.18.693.54.889.232.131.724.283 1.475.459l1.949.459c.854.201 1.492.471 1.918.805.662.521.993 1.279.993 2.268 0 1.016-.393 1.857-1.177 2.527s-1.892 1.006-3.322 1.006c-1.463 0-2.611-.33-3.447-.99-.84-.66-1.256-1.568-1.256-2.723h2.216zm-370.455-103.147c-.468-2.582-.691-5.466-1.627-5.466h-.059c-.936 0-1.161 2.884-1.626 5.466-5.023 27.731-30.078 36.865-29.648 57.064.378 17.834 13.451 32.301 31.283 32.324v.002l.02-.002.019.002v-.002c17.834-.021 30.905-14.49 31.285-32.324.43-20.199-24.624-29.333-29.647-57.064zm8.462 84.995c-4.405 1.74-7.8 1.789-7.8 1.789s3.401-.471 7.56-2.576c7.79-3.947 18.642-12.508 17.618-28.338-.032-.498 2.072-.5 2.072 0 .001 17.604-11.488 25.981-19.45 29.125z"/></svg>