<svg xmlns="http://www.w3.org/2000/svg" width="100%" viewBox="91.25 25 384 150"><style type="text/css"><![CDATA[
	.white {fill:#FFFFFF;}
]]></style><path class="white" d="M472.255 110.691c.256-2.576.244-9.467.244-9.467s-2.311-5.114-1.539-5.906c.766-.8-8.49-9.259-7.995-10.243.533-.984-10.044-5.696-10.044-5.696l-4.352-1.392-3.605-1.169-4.378-.192-7.712 1.577s-14.659 5.913-21.361 2.368c0 0 3.035 34.642 1.773 49.553-1.943-1.891-14.063-13.818-13.363-17.434 0 0-3.095-3.152-4.115-3.164-1.021-.004 7.727-3.738 8.23-4.723.521-.984 6.432-8.674 5.145-10.429-1.277-1.784-3.871-6.317-3.871-6.317s-8.996-11.213-24.68-12.397c0 0-19.814 6.321-27.805 4.948 0 0 6.491 42.003 1.979 53.972-15.514-15.207-28.081-58.979-28.081-58.979-7.734 6.488-18.138 5.899-18.138 5.899 3.238 3.937-10.697 30.116-19.378 45.511-9.825.115-28.835.259-29.804-.475-1.266-.994-1.802-14.961.003-15.154 1.798-.207 16.465-1.195 18.008-.41 1.547.781-2.831-3.938-.004-10.429 0 0-14.399 1.169-17.5-.396 0 0-2.069-5.714-.256-12.801 0 0 13.63-1.976 19.547-1.188 0 0 15.984-7.701 31.939-10.055 0 0-30.652 3.161-37.857.408 0 0-20.113 4.411-26.112 3.32l-.14-.367s-.062.133-.237.303c-.293-.104-.581-.171-.796-.296 0 0 .082.315.167.808-1.132.732-3.582 1.502-8.378-.008 0 0 2.842 16.739.777 19.103-2.062 2.368-24.443-.196-24.447.407 0 .592-2.842-17.138-.008-20.095 2.831-2.953-5.663 5.725-13.885 0 0 0 .151 1.665.407 4.415-.493-2.161-1.054-4.052-1.699-5.488-5.025-11.225-3.09-18.622-3.09-18.622s-3.442-12.341-4.63-19.014c.652 6.251 1.92 18.315 1.932 19.625-.019 1.773 3.094 18.304 1.543 26.579 0 0 1.951 22.76-2.683 26.58 0 0-21.619-15.629-30.516-38.075 0 0-2.982 2.724-6.48 5.085.739-6.399 1.461-10.899 1.461-10.899-6.931 1.173-3.686-31.522-2.502-41.796-1.006 7.827-1.879 10.691-1.879 10.691-1.074 20.964-4.767 10.303-3.475 16.094 4.836 22.064-7.554 57.769-7.554 57.769.773 2.746-1.798 4.312-1.798 4.312-3.601 16.164-21.86 11.438-26.231 9.074-4.367-2.354-1.806-5.117-3.611-9.834-1.806-4.721.248-35.66.248-35.66-7.978 3.948-14.669-.181-14.669-.181 5.663 9.854.277 36.638.277 36.638 9.008 20.684 30.113 22.631 30.113 22.631 15.24-5.061 22.448-11.762 25.835-16.605-.485 5.503-1.433 11.024-3.06 16.098 0 0 8.349-2.561 14.525-.492 0 0-3.101-28.65.371-37.512 0 0 28.569 28.921 29.735 37.205 0 0 6.69-7.883 9.115-9.283-.295 3.047-.748 5.615-1.402 7.41 0 0 9.77-2.781 13.386.188 0 0-2.343-19.507.495-25.816 0 0 8.73-1.965 11.05-.393 0 0 10.037-1.771 12.342-.203 2.332 1.58 6.991 31.703 4.67 48.447-1.332 9.702 2.667-13.135 4.952-37.13 1.151 7.368 3.268 14.666 3.268 14.666s17.367-.378 33.528-.496c-.943 1.618-1.502 2.55-1.502 2.55 3.879.295.781 20.1.781 20.1 3.492 5.913.404 13.584.404 13.584 4.625-9.453-.796-20.389 3.47-28.946 4.241-8.579 9.28-2.669 8.515-4.448-.167-.377.218-1.442.91-2.867 6.104.028 11.048.14 13.32.396-1.646-.297-5.658-1.385-10.673-5.211 2.891-4.922 6.477-10.336 6.477-10.336 10.805-2.357 27.016-.012 27.016-.012 6.967 8.256 8.496 16.831 8.496 16.831 5.792-3.549 13.119 2.357 12.346.585-.77-1.762 3.482-1.181 3.482-1.181-.314-.245-.629-.522-.943-.784 2.776.396 6.588 5.04 5.586 28.547 0 0 .51-15.754 2.819-15.746 0 0-4.896-11.617-1.802-11.617 3.078-.015 4.627-1.199 5.152-.012.51 1.178-2.861-15.953-.537-23.828 0 0 24.699-6.121 36.811 27.152 0 0 1.311.148 1.699 1.21.107-2.953 1.295-10.654 7.242-11.214-.31 3.401-.861 5.71-1.716 6.266 0 0 6.428-.389 6.687.592.264.984 8.479-1.98 21.346.769l15.967-3.952 5.905-4.529c-.002-.005 10.534-16.356 10.797-18.902zm-159.787-1.699l8.479-14.783c-1.539 7.086 7.717 12.408 6.18 14.776-1.551 2.354-14.659.007-14.659.007zm56.44-7.834c-3.913-6.761-1.876-13.43-1.876-13.43l19.954-.562c6.676-.012 6.872 6.769 6.872 6.769.145 8.962-24.95 7.223-24.95 7.223zm75.055 24.899s-14.271 3.846-18.142-.289c-3.852-4.137-.018-38.99-.018-38.99 17.748-2.671 23.529 1.451 23.529 1.451l4.637 6.213 3.859 6.783.022 11.236-2.313 6.497-11.574 7.099z"/></svg>